<svg id="SvgjsSvg1001" width="288" height="288" xmlns="http://www.w3.org/2000/svg" version="1.1" xmlns:xlink="http://www.w3.org/1999/xlink" xmlns:svgjs="http://svgjs.com/svgjs"><defs id="SvgjsDefs1002"></defs><g id="SvgjsG1008"><svg xmlns="http://www.w3.org/2000/svg" id="Icons" x="0" y="0" enable-background="new 0 0 32 32" version="1.1" viewBox="0 0 32 32" xml:space="preserve" width="288" height="288"><path fill="none" stroke="#93c847" stroke-linejoin="round" stroke-miterlimit="10" stroke-width="2" d="M28.8,20.2c-1.1,0.2-2,0-2.4-0.7c-0.4-0.7-0.1-1.7,0.6-2.5c-0.9-0.9-1.9-1.5-3.1-1.8c-0.3,1-1,1.8-1.8,1.8
	s-1.5-0.7-1.8-1.8c-1.2,0.3-2.3,0.9-3.1,1.8c0.7,0.8,1,1.8,0.6,2.5c-0.4,0.7-1.4,0.9-2.4,0.7C15.1,20.8,15,21.4,15,22
	s0.1,1.2,0.2,1.8c1.1-0.2,2,0,2.4,0.7c0.4,0.7,0.1,1.7-0.6,2.5c0.9,0.9,1.9,1.5,3.1,1.8c0.3-1,1-1.8,1.8-1.8s1.5,0.7,1.8,1.8
	c1.2-0.3,2.3-0.9,3.1-1.8c-0.7-0.8-1-1.8-0.6-2.5c0.4-0.7,1.4-0.9,2.4-0.7c0.2-0.6,0.2-1.2,0.2-1.8S28.9,20.8,28.8,20.2z" class="colorStroke000 svgStroke"></path><circle cx="22" cy="22" r="2" fill="none" stroke="#93c847" stroke-linejoin="round" stroke-miterlimit="10" stroke-width="2" class="colorStroke000 svgStroke"></circle><line x1="5" x2="21" y1="12" y2="12" fill="none" stroke="#93c847" stroke-linecap="round" stroke-linejoin="round" stroke-miterlimit="10" stroke-width="2" class="colorStroke000 svgStroke"></line><path fill="none" stroke="#93c847" stroke-linecap="round" stroke-linejoin="round" stroke-miterlimit="10" stroke-width="2" d="M10.5 8.1L9.3 3.9l0 0c2.3-1.2 5.1-1.2 7.4 0l0 0-1.2 4.2M16.5 4.9c2 1.2 3.3 3.4 3.3 5.9V12M6.2 12v-1.2c0-2.5 1.3-4.7 3.3-5.9M8 12v2c0 2.1.9 4 2.5 5v0c0 2.1-1.3 3.9-3.2 4.4C5.1 24 3.5 26 3 28.4 3 28.7 3.2 29 3.5 29H13" class="colorStroke000 svgStroke"></path></svg></g></svg>